<svg width="200" height="100" viewBox="0 0 200 100" fill="none" xmlns="http://www.w3.org/2000/svg">
<g clip-path="url(#clip0)">
<circle cx="95" cy="5" r="5" fill="#051257"/>
<circle cx="113" cy="5" r="5" fill="#051257"/>
<circle cx="131" cy="5" r="5" fill="#051257"/>
<circle cx="149" cy="5" r="5" fill="#051257"/>
<circle cx="167" cy="5" r="5" fill="#051257"/>
<circle cx="185" cy="5" r="5" fill="#051257"/>
<circle cx="77" cy="23" r="5" fill="#051257"/>
<circle cx="95" cy="23" r="5" fill="#051257"/>
<circle cx="113" cy="23" r="5" fill="#051257"/>
<circle cx="131" cy="23" r="5" fill="#051257"/>
<circle cx="149" cy="23" r="5" fill="#051257"/>
<circle cx="167" cy="23" r="5" fill="#051257"/>
<circle cx="59" cy="41" r="5" fill="#051257"/>
<circle cx="77" cy="41" r="5" fill="#051257"/>
<circle cx="95" cy="41" r="5" fill="#051257"/>
<circle cx="113" cy="41" r="5" fill="#051257"/>
<circle cx="131" cy="41" r="5" fill="#051257"/>
<circle cx="149" cy="41" r="5" fill="#051257"/>
<circle cx="41" cy="59" r="5" fill="#051257"/>
<circle cx="59" cy="59" r="5" fill="#051257"/>
<circle cx="77" cy="59" r="5" fill="#051257"/>
<circle cx="95" cy="59" r="5" fill="#051257"/>
<circle cx="113" cy="59" r="5" fill="#051257"/>
<circle cx="131" cy="59" r="5" fill="#051257"/>
<circle cx="23" cy="77" r="5" fill="#051257"/>
<circle cx="41" cy="77" r="5" fill="#051257"/>
<circle cx="59" cy="77" r="5" fill="#051257"/>
<circle cx="77" cy="77" r="5" fill="#051257"/>
<circle cx="95" cy="77" r="5" fill="#051257"/>
<circle cx="113" cy="77" r="5" fill="#051257"/>
<circle cx="5" cy="95" r="5" fill="#051257"/>
<circle cx="23" cy="95" r="5" fill="#051257"/>
<circle cx="41" cy="95" r="5" fill="#051257"/>
<circle cx="59" cy="95" r="5" fill="#051257"/>
<circle cx="77" cy="95" r="5" fill="#051257"/>
<circle cx="95" cy="95" r="5" fill="#051257"/>
</g>
<defs>
<clipPath id="clip0">
<rect width="200" height="100" fill="white"/>
</clipPath>
</defs>
</svg>
